<?xml version="1.0" encoding="utf-8"?>
<!-- Generator: Adobe Illustrator 16.2.1, SVG Export Plug-In . SVG Version: 6.00 Build 0)  -->
<!DOCTYPE svg PUBLIC "-//W3C//DTD SVG 1.1//EN" "http://www.w3.org/Graphics/SVG/1.1/DTD/svg11.dtd">
<svg version="1.1" id="Layer_1" xmlns="http://www.w3.org/2000/svg" xmlns:xlink="http://www.w3.org/1999/xlink" x="0px" y="0px"
	 width="612px" height="792px" viewBox="0 0 612 792" enable-background="new 0 0 612 792" xml:space="preserve">
<rect fill="#0C1523" width="141" height="792"/>
<g>
	<path fill="#FFFFFF" d="M22.5205078,66.5722656c-0.3603516,0-0.734375-0.0087891-1.1152344-0.015625
		c-0.3964844-0.0058594-0.8066406-0.015625-1.2197266-0.015625h-0.203125V56.3085938h0.2314453
		c0.3417969,0,0.7080078-0.0097656,1.0878906-0.0195312c0.4257812-0.0117188,0.8710938-0.0234375,1.3339844-0.0234375
		c3.5917969,0,5.7363281,1.875,5.7363281,5.015625C28.3720703,64.4941406,26.0751953,66.5722656,22.5205078,66.5722656z
		 M22.5478516,65.6738281c2.9863281,0,4.8398438-1.6835938,4.8398438-4.3925781c0-2.578125-1.7871094-4.1171875-4.7792969-4.1171875
		c-0.4941406,0-0.8359375,0.0117188-1.1855469,0.0234375c-0.1601562,0.0068359-0.3232422,0.0117188-0.5009766,0.0175781v8.4414062
		C20.921875,65.6464844,22.4716797,65.6738281,22.5478516,65.6738281z"/>
	<polygon fill="#FFFFFF" points="38.1435547,66.5361328 38.1435547,56.3027344 43.8662109,56.3027344 43.8662109,57.1972656 
		39.0830078,57.1972656 39.0830078,60.8964844 43.4345703,60.8964844 43.4345703,61.796875 39.0830078,61.796875 
		39.0830078,65.6367188 44.0107422,65.6367188 44.0107422,66.5361328 	"/>
	<path fill="#FFFFFF" d="M56.3818359,66.6650391c-1.1601562,0-2.6181641-0.5126953-3.1621094-1.4931641L53.1943359,65.125
		l0.5712891-0.65625l0.0517578,0.0761719c0.6171875,0.8398438,1.7539062,1.2226562,2.5507812,1.2226562
		c1.1162109,0,2.3164062-0.5683594,2.3164062-1.8134766c0-1.3164062-1.1640625-1.7763672-2.3984375-2.2646484
		c-1.3837891-0.5488281-2.8183594-1.1152344-2.8183594-2.921875c0-1.5517578,1.2167969-2.5957031,3.0302734-2.5957031
		c1.1181641,0,2.1757812,0.4023438,2.7636719,1.0478516l0.0400391,0.0439453l-0.5195312,0.7109375l-0.0605469-0.0625
		c-0.5585938-0.5585938-1.2988281-0.8417969-2.1953125-0.8417969c-1.2597656,0-2.0742188,0.6640625-2.0742188,1.6972656
		c0,1.2841797,1.1425781,1.7197266,2.3525391,2.1835938c1.3427734,0.5117188,2.8623047,1.0917969,2.8623047,2.9882812
		C59.6669922,65.5214844,58.2861328,66.6650391,56.3818359,66.6650391z"/>
	<rect x="69.2822266" y="56.3027344" fill="#FFFFFF" width="0.9404297" height="10.2333984"/>
	<path fill="#FFFFFF" d="M84.9658203,66.6650391c-3.0800781,0-5.0722656-2.0576172-5.0722656-5.2460938
		c0-3.0400391,2.0917969-5.2470703,4.9707031-5.2470703c1.3203125,0,2.3251953,0.3085938,3.1591797,0.9677734l0.0507812,0.0400391
		l-0.4365234,0.75l-0.0673828-0.0566406c-0.6201172-0.5263672-1.5263672-0.8027344-2.6181641-0.8027344
		c-2.3984375,0-4.0742188,1.7890625-4.0742188,4.3486328c0,2.6005859,1.6533203,4.3486328,4.1171875,4.3486328
		c1.0996094,0,2.2958984-0.4140625,2.9238281-1.0078125v-2.359375h-2.9550781v-0.8984375h3.8515625v3.7363281l-0.0214844,0.0214844
		C87.8271484,66.2246094,86.1337891,66.6650391,84.9658203,66.6650391z"/>
	<polygon fill="#FFFFFF" points="105.7470703,66.5361328 98.9541016,58 98.9541016,66.5361328 98.0566406,66.5361328 
		98.0566406,56.3027344 98.7998047,56.3027344 105.5947266,64.8642578 105.5947266,56.3027344 106.4892578,56.3027344 
		106.4892578,66.5361328 	"/>
	<path fill="#FFFFFF" d="M117.7978516,66.6650391c-1.1572266,0-2.6171875-0.5126953-3.1601562-1.4931641L114.6132812,65.125
		l0.5693359-0.65625l0.0546875,0.0761719c0.6152344,0.8398438,1.7519531,1.2226562,2.5488281,1.2226562
		c1.1152344,0,2.3183594-0.5683594,2.3183594-1.8134766c0-1.3164062-1.1679688-1.7763672-2.3974609-2.2646484
		c-1.3876953-0.5488281-2.8193359-1.1152344-2.8193359-2.921875c0-1.5517578,1.2167969-2.5957031,3.0273438-2.5957031
		c1.1191406,0,2.1777344,0.4023438,2.7617188,1.0478516l0.0400391,0.0439453l-0.5166016,0.7109375l-0.0605469-0.0625
		c-0.5615234-0.5585938-1.3007812-0.8417969-2.1972656-0.8417969c-1.2578125,0-2.0703125,0.6640625-2.0703125,1.6972656
		c0,1.2841797,1.1425781,1.7197266,2.3496094,2.1835938c1.3417969,0.5117188,2.8652344,1.0917969,2.8652344,2.9882812
		C121.0869141,65.5214844,119.7050781,66.6650391,117.7978516,66.6650391z"/>
</g>
<g>
	<g>
		<g>
			<g>
				<polygon fill="#FFFFFF" points="84.5166016,50.8535156 84.5166016,18.6333008 70.0439453,36.5844727 69.8720703,36.5737305 
					55.3818359,18.6333008 55.3935547,50.8535156 53.4697266,50.8535156 53.4697266,15.9389648 55.5673828,15.9389648 
					69.9287109,34.0478516 84.3876953,15.9389648 86.4384766,15.9389648 86.4384766,50.8535156 				"/>
			</g>
		</g>
	</g>
	<g>
		<path fill="#FFFFFF" d="M92.1572266,15.9389648h15.3066406c4.3203125,0,7.4472656,0.9790039,9.2929688,2.9047852
			c1.5527344,1.6206055,2.2421875,3.887207,2.1103516,6.9335938c-0.2353516,5.5327148-4.65625,7.4311523-8.3212891,8.0473633
			l-0.6582031,0.1123047l10.6992188,17.0200195h-2.2236328L107.6669922,33.987793H94.2470703l0.0136719,16.9692383
			l-2.1035156,0.0136719V15.9389648z M96.5732422,17.6538086c-0.8994141,0-1.5996094,0.0058594-1.9492188,0.0146484
			l-0.4355469,0.0107422v14.4702148l13.6542969,0.0649414c5.1748047,0,9.0771484-3.0893555,9.0771484-7.1875
			c0-4.9248047-3.1513672-7.3183594-9.6396484-7.3183594c-0.28125,0-1.1748047-0.0039062-2.3691406-0.0146484
			C102.5029297,17.6791992,98.8779297,17.6538086,96.5732422,17.6538086z"/>
	</g>
	<g>
		<g>
			<polygon fill="#FFFFFF" points="45.6435547,50.8535156 45.6435547,33.9228516 22.4052734,33.9228516 22.4052734,50.8535156 
				20.4833984,50.8535156 20.4833984,15.9389648 22.4052734,15.9389648 22.4052734,32.152832 45.6435547,32.152832 
				45.6435547,15.9389648 47.5693359,15.9389648 47.5693359,50.8535156 			"/>
		</g>
	</g>
</g>
<g>
	<path fill="#FFFFFF" d="M127.7333984,79.3886719h-114.125l-0.1630859-0.2890625
		c-2.2685547-4.0097656-4.2197266-6.0625-9.7744141-7.6191406l-0.4160156-0.1162109V11.2558594l0.3925781-0.1279297
		c4.8671875-1.5898438,6.8017578-3.1582031,9.4101562-7.628418l0.1640625-0.2822266h114.5107422l0.1621094,0.2939453
		c2.4365234,4.4067383,4.4189453,6.5498047,9.7275391,7.5996094l0.4580078,0.090332v60.1621094l-0.4130859,0.1171875
		c-5.0654297,1.4355469-7.3486328,3.2148438-9.7714844,7.6132812L127.7333984,79.3886719z M14.2705078,78.25h112.7929688
		c2.4453125-4.3300781,4.921875-6.2753906,9.8789062-7.7441406V12.1313477
		c-5.2607422-1.1420898-7.4550781-3.4599609-9.8789062-7.7763672H13.8740234
		c-2.6015625,4.3808594-4.7294922,6.1191406-9.4804688,7.7236328v58.4262695
		C9.8544922,72.1113281,12.0087891,74.3261719,14.2705078,78.25z"/>
	<g>
		<path fill="#FFFFFF" d="M129.4052734,1.5922852c1.3378906,3.9990234,5.5126953,7.4165039,10.3359375,8.4399414v62.515625
			c-4.9042969,0.9658203-9.0888672,4.3935547-10.3632812,8.4658203H11.9541016
			c-1.2851562-4.0566406-5.4697266-7.4814453-10.3613281-8.4609375V10.0166016
			c4.7675781-1.0668945,8.9365234-4.4780273,10.3183594-8.4243164H129.4052734 M130.6425781,0H10.6943359
			C9.9169922,4.1831055,5.1611328,8.0454102,0,8.6782227v65.2456055c5.3056641,0.5175781,10.0537109,4.3769531,10.6943359,8.6816406
			h119.9482422c0.6259766-4.3164062,5.3730469-8.1816406,10.6904297-8.6816406V8.6782227
			C136.1005859,8.1015625,131.3564453,4.2412109,130.6425781,0L130.6425781,0z"/>
		<g>
			<path fill="#FFFFFF" d="M129.4052734,1.5922852c1.3378906,3.9990234,5.5126953,7.4165039,10.3359375,8.4399414v62.515625
				c-4.9042969,0.9658203-9.0888672,4.3935547-10.3632812,8.4658203H11.9541016
				c-1.2851562-4.0566406-5.4697266-7.4814453-10.3613281-8.4609375V10.0166016
				c4.7675781-1.0668945,8.9365234-4.4780273,10.3183594-8.4243164H129.4052734 M130.6425781,0H10.6943359
				C9.9169922,4.1831055,5.1611328,8.0454102,0,8.6782227v65.2456055
				c5.3056641,0.5175781,10.0537109,4.3769531,10.6943359,8.6816406h119.9482422
				c0.6259766-4.3164062,5.3730469-8.1816406,10.6904297-8.6816406V8.6782227
				C136.1005859,8.1015625,131.3564453,4.2412109,130.6425781,0L130.6425781,0z"/>
		</g>
	</g>
</g>
<g>
	<path fill="#FFFFFF" d="M164.7568359,66.5722656c-0.3603516,0-0.734375-0.0087891-1.1152344-0.015625
		c-0.3964844-0.0058594-0.8066406-0.015625-1.2197266-0.015625h-0.203125V56.3085938h0.2314453
		c0.3417969,0,0.7080078-0.0097656,1.0878906-0.0195312c0.4257812-0.0117188,0.8710938-0.0234375,1.3339844-0.0234375
		c3.5917969,0,5.7363281,1.875,5.7363281,5.015625C170.6083984,64.4941406,168.3115234,66.5722656,164.7568359,66.5722656z
		 M164.7841797,65.6738281c2.9863281,0,4.8398438-1.6835938,4.8398438-4.3925781
		c0-2.578125-1.7871094-4.1171875-4.7792969-4.1171875c-0.4941406,0-0.8359375,0.0117188-1.1855469,0.0234375
		c-0.1601562,0.0068359-0.3232422,0.0117188-0.5009766,0.0175781v8.4414062
		C163.1582031,65.6464844,164.7080078,65.6738281,164.7841797,65.6738281z"/>
	<polygon fill="#FFFFFF" points="180.3798828,66.5361328 180.3798828,56.3027344 186.1025391,56.3027344 186.1025391,57.1972656 
		181.3193359,57.1972656 181.3193359,60.8964844 185.6708984,60.8964844 185.6708984,61.796875 181.3193359,61.796875 
		181.3193359,65.6367188 186.2470703,65.6367188 186.2470703,66.5361328 	"/>
	<path fill="#FFFFFF" d="M198.6181641,66.6650391c-1.1601562,0-2.6181641-0.5126953-3.1621094-1.4931641L195.4306641,65.125
		l0.5712891-0.65625l0.0517578,0.0761719c0.6171875,0.8398438,1.7539062,1.2226562,2.5507812,1.2226562
		c1.1162109,0,2.3164062-0.5683594,2.3164062-1.8134766c0-1.3164062-1.1640625-1.7763672-2.3984375-2.2646484
		c-1.3837891-0.5488281-2.8183594-1.1152344-2.8183594-2.921875c0-1.5517578,1.2167969-2.5957031,3.0302734-2.5957031
		c1.1181641,0,2.1757812,0.4023438,2.7636719,1.0478516l0.0400391,0.0439453l-0.5195312,0.7109375l-0.0605469-0.0625
		c-0.5585938-0.5585938-1.2988281-0.8417969-2.1953125-0.8417969c-1.2597656,0-2.0742188,0.6640625-2.0742188,1.6972656
		c0,1.2841797,1.1425781,1.7197266,2.3525391,2.1835938c1.3427734,0.5117188,2.8623047,1.0917969,2.8623047,2.9882812
		C201.9033203,65.5214844,200.5224609,66.6650391,198.6181641,66.6650391z"/>
	<rect x="211.5185547" y="56.3027344" fill="#FFFFFF" width="0.9404297" height="10.2333984"/>
	<path fill="#FFFFFF" d="M227.2021484,66.6650391c-3.0800781,0-5.0722656-2.0576172-5.0722656-5.2460938
		c0-3.0400391,2.0917969-5.2470703,4.9707031-5.2470703c1.3203125,0,2.3251953,0.3085938,3.1591797,0.9677734l0.0507812,0.0400391
		l-0.4365234,0.75l-0.0673828-0.0566406c-0.6201172-0.5263672-1.5263672-0.8027344-2.6181641-0.8027344
		c-2.3984375,0-4.0742188,1.7890625-4.0742188,4.3486328c0,2.6005859,1.6533203,4.3486328,4.1171875,4.3486328
		c1.0996094,0,2.2958984-0.4140625,2.9238281-1.0078125v-2.359375h-2.9550781v-0.8984375h3.8515625v3.7363281l-0.0214844,0.0214844
		C230.0634766,66.2246094,228.3701172,66.6650391,227.2021484,66.6650391z"/>
	<polygon fill="#FFFFFF" points="247.9833984,66.5361328 241.1904297,58 241.1904297,66.5361328 240.2929688,66.5361328 
		240.2929688,56.3027344 241.0361328,56.3027344 247.8310547,64.8642578 247.8310547,56.3027344 248.7255859,56.3027344 
		248.7255859,66.5361328 	"/>
	<path fill="#FFFFFF" d="M260.0341797,66.6650391c-1.1572266,0-2.6171875-0.5126953-3.1601562-1.4931641L256.8496094,65.125
		l0.5693359-0.65625l0.0546875,0.0761719c0.6152344,0.8398438,1.7519531,1.2226562,2.5488281,1.2226562
		c1.1152344,0,2.3183594-0.5683594,2.3183594-1.8134766c0-1.3164062-1.1679688-1.7763672-2.3974609-2.2646484
		c-1.3876953-0.5488281-2.8193359-1.1152344-2.8193359-2.921875c0-1.5517578,1.2167969-2.5957031,3.0273438-2.5957031
		c1.1191406,0,2.1777344,0.4023438,2.7617188,1.0478516l0.0400391,0.0439453l-0.5166016,0.7109375l-0.0605469-0.0625
		c-0.5615234-0.5585938-1.3007812-0.8417969-2.1972656-0.8417969c-1.2578125,0-2.0703125,0.6640625-2.0703125,1.6972656
		c0,1.2841797,1.1425781,1.7197266,2.3496094,2.1835938c1.3417969,0.5117188,2.8652344,1.0917969,2.8652344,2.9882812
		C263.3232422,65.5214844,261.9414062,66.6650391,260.0341797,66.6650391z"/>
</g>
<g>
	<g>
		<g>
			<g>
				<polygon fill="#FFFFFF" points="226.7529297,50.8535156 226.7529297,18.6333008 212.2802734,36.5844727 212.1083984,36.5737305 
					197.6181641,18.6333008 197.6298828,50.8535156 195.7060547,50.8535156 195.7060547,15.9389648 197.8037109,15.9389648 
					212.1650391,34.0478516 226.6240234,15.9389648 228.6748047,15.9389648 228.6748047,50.8535156 				"/>
			</g>
		</g>
	</g>
	<g>
		<path fill="#FFFFFF" d="M234.3935547,15.9389648h15.3066406c4.3203125,0,7.4472656,0.9790039,9.2929688,2.9047852
			c1.5527344,1.6206055,2.2421875,3.887207,2.1103516,6.9335938c-0.2353516,5.5327148-4.65625,7.4311523-8.3212891,8.0473633
			l-0.6582031,0.1123047l10.6992188,17.0200195h-2.2236328L249.9033203,33.987793h-13.4199219l0.0136719,16.9692383
			l-2.1035156,0.0136719V15.9389648z M238.8095703,17.6538086c-0.8994141,0-1.5996094,0.0058594-1.9492188,0.0146484
			l-0.4355469,0.0107422v14.4702148l13.6542969,0.0649414c5.1748047,0,9.0771484-3.0893555,9.0771484-7.1875
			c0-4.9248047-3.1513672-7.3183594-9.6396484-7.3183594c-0.28125,0-1.1748047-0.0039062-2.3691406-0.0146484
			C244.7392578,17.6791992,241.1142578,17.6538086,238.8095703,17.6538086z"/>
	</g>
	<g>
		<g>
			<polygon fill="#FFFFFF" points="187.8798828,50.8535156 187.8798828,33.9228516 164.6416016,33.9228516 164.6416016,50.8535156 
				162.7197266,50.8535156 162.7197266,15.9389648 164.6416016,15.9389648 164.6416016,32.152832 187.8798828,32.152832 
				187.8798828,15.9389648 189.8056641,15.9389648 189.8056641,50.8535156 			"/>
		</g>
	</g>
</g>
<g>
	<path fill="#FFFFFF" d="M269.9697266,79.3886719h-114.125l-0.1630859-0.2890625
		c-2.2685547-4.0097656-4.2197266-6.0625-9.7744141-7.6191406l-0.4160156-0.1162109V11.2558594l0.3925781-0.1279297
		c4.8671875-1.5898438,6.8017578-3.1582031,9.4101562-7.628418l0.1640625-0.2822266H269.96875l0.1621094,0.2939453
		c2.4365234,4.4067383,4.4189453,6.5498047,9.7275391,7.5996094l0.4580078,0.090332v60.1621094l-0.4130859,0.1171875
		c-5.0654297,1.4355469-7.3486328,3.2148438-9.7714844,7.6132812L269.9697266,79.3886719z M156.5068359,78.25h112.7929688
		c2.4453125-4.3300781,4.921875-6.2753906,9.8789062-7.7441406V12.1313477
		c-5.2607422-1.1420898-7.4550781-3.4599609-9.8789062-7.7763672H156.1103516
		c-2.6015625,4.3808594-4.7294922,6.1191406-9.4804688,7.7236328v58.4262695
		C152.0908203,72.1113281,154.2451172,74.3261719,156.5068359,78.25z"/>
	<g>
		<path fill="#FFFFFF" d="M271.6416016,1.5922852c1.3378906,3.9990234,5.5126953,7.4165039,10.3359375,8.4399414v62.515625
			c-4.9042969,0.9658203-9.0888672,4.3935547-10.3632812,8.4658203H154.1904297
			c-1.2851562-4.0566406-5.4697266-7.4814453-10.3613281-8.4609375V10.0166016
			c4.7675781-1.0668945,8.9365234-4.4780273,10.3183594-8.4243164H271.6416016 M272.8789062,0H152.9306641
			c-0.7773438,4.1831055-5.5332031,8.0454102-10.6943359,8.6782227v65.2456055
			c5.3056641,0.5175781,10.0537109,4.3769531,10.6943359,8.6816406h119.9482422
			c0.6259766-4.3164062,5.3730469-8.1816406,10.6904297-8.6816406V8.6782227
			C278.3369141,8.1015625,273.5927734,4.2412109,272.8789062,0L272.8789062,0z"/>
		<g>
			<path fill="#FFFFFF" d="M271.6416016,1.5922852c1.3378906,3.9990234,5.5126953,7.4165039,10.3359375,8.4399414v62.515625
				c-4.9042969,0.9658203-9.0888672,4.3935547-10.3632812,8.4658203H154.1904297
				c-1.2851562-4.0566406-5.4697266-7.4814453-10.3613281-8.4609375V10.0166016
				c4.7675781-1.0668945,8.9365234-4.4780273,10.3183594-8.4243164H271.6416016 M272.8789062,0H152.9306641
				c-0.7773438,4.1831055-5.5332031,8.0454102-10.6943359,8.6782227v65.2456055
				c5.3056641,0.5175781,10.0537109,4.3769531,10.6943359,8.6816406h119.9482422
				c0.6259766-4.3164062,5.3730469-8.1816406,10.6904297-8.6816406V8.6782227
				C278.3369141,8.1015625,273.5927734,4.2412109,272.8789062,0L272.8789062,0z"/>
		</g>
	</g>
</g>
</svg>
