<?xml version="1.0" encoding="utf-8"?>
<!-- Generator: Adobe Illustrator 17.0.0, SVG Export Plug-In . SVG Version: 6.00 Build 0)  -->
<!DOCTYPE svg PUBLIC "-//W3C//DTD SVG 1.1//EN" "http://www.w3.org/Graphics/SVG/1.1/DTD/svg11.dtd">
<svg version="1.1" id="Layer_1" xmlns="http://www.w3.org/2000/svg" xmlns:xlink="http://www.w3.org/1999/xlink" x="0px" y="0px"
	 width="612px" height="792px" viewBox="0 0 612 792" enable-background="new 0 0 612 792" xml:space="preserve">
<rect fill="#0C1523" width="141" height="792"/>
<g>
	<path fill="#FFFFFF" d="M22.521,66.572c-0.36,0-0.734-0.009-1.115-0.016c-0.396-0.006-0.807-0.016-1.22-0.016h-0.203V56.309h0.231
		c0.342,0,0.708-0.01,1.088-0.02c0.426-0.012,0.871-0.023,1.334-0.023c3.592,0,5.736,1.875,5.736,5.016
		C28.372,64.494,26.075,66.572,22.521,66.572z M22.548,65.674c2.986,0,4.84-1.684,4.84-4.393c0-2.578-1.787-4.117-4.779-4.117
		c-0.494,0-0.836,0.012-1.186,0.023c-0.16,0.007-0.323,0.012-0.501,0.018v8.441C20.922,65.646,22.472,65.674,22.548,65.674z"/>
	<polygon fill="#FFFFFF" points="38.144,66.536 38.144,56.303 43.866,56.303 43.866,57.197 39.083,57.197 39.083,60.896 
		43.435,60.896 43.435,61.797 39.083,61.797 39.083,65.637 44.011,65.637 44.011,66.536 	"/>
	<path fill="#FFFFFF" d="M56.382,66.665c-1.16,0-2.618-0.513-3.162-1.493l-0.025-0.047l0.571-0.656l0.052,0.076
		c0.617,0.84,1.754,1.223,2.551,1.223c1.116,0,2.316-0.568,2.316-1.813c0-1.316-1.164-1.776-2.398-2.265
		c-1.384-0.549-2.818-1.115-2.818-2.922c0-1.552,1.217-2.596,3.03-2.596c1.118,0,2.176,0.402,2.764,1.048l0.04,0.044l-0.52,0.711
		l-0.061-0.063c-0.559-0.559-1.299-0.842-2.195-0.842c-1.26,0-2.074,0.664-2.074,1.697c0,1.284,1.143,1.72,2.353,2.184
		c1.343,0.512,2.862,1.092,2.862,2.988C59.667,65.521,58.286,66.665,56.382,66.665z"/>
	<rect x="69.282" y="56.303" fill="#FFFFFF" width="0.94" height="10.233"/>
	<path fill="#FFFFFF" d="M84.966,66.665c-3.08,0-5.072-2.058-5.072-5.246c0-3.04,2.092-5.247,4.971-5.247
		c1.32,0,2.325,0.309,3.159,0.968l0.051,0.04l-0.437,0.75l-0.067-0.057c-0.62-0.526-1.526-0.803-2.618-0.803
		c-2.398,0-4.074,1.789-4.074,4.349c0,2.601,1.653,4.349,4.117,4.349c1.1,0,2.296-0.414,2.924-1.008V62.4h-2.955v-0.898h3.852v3.736
		l-0.021,0.021C87.827,66.225,86.134,66.665,84.966,66.665z"/>
	<polygon fill="#FFFFFF" points="105.747,66.536 98.954,58 98.954,66.536 98.057,66.536 98.057,56.303 98.8,56.303 105.595,64.864 
		105.595,56.303 106.489,56.303 106.489,66.536 	"/>
	<path fill="#FFFFFF" d="M117.798,66.665c-1.157,0-2.617-0.513-3.16-1.493l-0.024-0.047l0.569-0.656l0.055,0.076
		c0.615,0.84,1.752,1.223,2.549,1.223c1.115,0,2.318-0.568,2.318-1.813c0-1.316-1.168-1.776-2.397-2.265
		c-1.388-0.549-2.819-1.115-2.819-2.922c0-1.552,1.217-2.596,3.027-2.596c1.119,0,2.178,0.402,2.762,1.048l0.04,0.044l-0.517,0.711
		l-0.061-0.063c-0.562-0.559-1.301-0.842-2.197-0.842c-1.258,0-2.07,0.664-2.07,1.697c0,1.284,1.143,1.72,2.35,2.184
		c1.342,0.512,2.865,1.092,2.865,2.988C121.087,65.521,119.705,66.665,117.798,66.665z"/>
</g>
<g>
	<g>
		<g>
			<g>
				<polygon fill="#FFFFFF" points="84.517,50.854 84.517,18.633 70.044,36.584 69.872,36.574 55.382,18.633 55.394,50.854 
					53.47,50.854 53.47,15.939 55.567,15.939 69.929,34.048 84.388,15.939 86.438,15.939 86.438,50.854 				"/>
			</g>
		</g>
	</g>
	<g>
		<path fill="#FFFFFF" d="M92.157,15.939h15.307c4.32,0,7.447,0.979,9.293,2.905c1.553,1.621,2.242,3.887,2.11,6.934
			c-0.235,5.533-4.656,7.431-8.321,8.047l-0.658,0.112l10.699,17.02h-2.224l-10.696-16.969h-13.42l0.014,16.969l-2.104,0.014V15.939
			z M96.573,17.654c-0.899,0-1.6,0.006-1.949,0.015l-0.436,0.011v14.47l13.654,0.065c5.175,0,9.077-3.089,9.077-7.188
			c0-4.925-3.151-7.318-9.64-7.318c-0.281,0-1.175-0.004-2.369-0.015C102.503,17.679,98.878,17.654,96.573,17.654z"/>
	</g>
	<g>
		<g>
			<polygon fill="#FFFFFF" points="45.644,50.854 45.644,33.923 22.405,33.923 22.405,50.854 20.483,50.854 20.483,15.939 
				22.405,15.939 22.405,32.153 45.644,32.153 45.644,15.939 47.569,15.939 47.569,50.854 			"/>
		</g>
	</g>
</g>
<g>
	<path fill="#FFFFFF" d="M127.733,79.389H13.608L13.445,79.1c-2.269-4.01-4.22-6.063-9.774-7.619l-0.416-0.116V11.256l0.393-0.128
		c4.867-1.59,6.802-3.158,9.41-7.628l0.164-0.282h114.511l0.162,0.294c2.437,4.407,4.419,6.55,9.728,7.6l0.458,0.09v60.162
		l-0.413,0.117c-5.065,1.436-7.349,3.215-9.771,7.613L127.733,79.389z M14.271,78.25h112.793c2.445-4.33,4.922-6.275,9.879-7.744
		V12.131c-5.261-1.142-7.455-3.46-9.879-7.776H13.874c-2.602,4.381-4.729,6.119-9.48,7.724v58.426
		C9.854,72.111,12.009,74.326,14.271,78.25z"/>
	<g>
		<path fill="#FFFFFF" d="M129.405,1.592c1.338,3.999,5.513,7.417,10.336,8.44v62.516c-4.904,0.966-9.089,4.394-10.363,8.466H11.954
			c-1.285-4.057-5.47-7.481-10.361-8.461V10.017C6.36,8.95,10.529,5.539,11.911,1.592H129.405 M130.643,0H10.694
			C9.917,4.183,5.161,8.045,0,8.678v65.246c5.306,0.518,10.054,4.377,10.694,8.682h119.948c0.626-4.316,5.373-8.182,10.69-8.682
			V8.678C136.101,8.102,131.356,4.241,130.643,0L130.643,0z"/>
		<g>
			<path fill="#FFFFFF" d="M129.405,1.592c1.338,3.999,5.513,7.417,10.336,8.44v62.516c-4.904,0.966-9.089,4.394-10.363,8.466
				H11.954c-1.285-4.057-5.47-7.481-10.361-8.461V10.017C6.36,8.95,10.529,5.539,11.911,1.592H129.405 M130.643,0H10.694
				C9.917,4.183,5.161,8.045,0,8.678v65.246c5.306,0.518,10.054,4.377,10.694,8.682h119.948c0.626-4.316,5.373-8.182,10.69-8.682
				V8.678C136.101,8.102,131.356,4.241,130.643,0L130.643,0z"/>
		</g>
	</g>
</g>
<g>
	<path fill="#FFFFFF" d="M164.757,66.572c-0.36,0-0.734-0.009-1.115-0.016c-0.396-0.006-0.807-0.016-1.22-0.016h-0.203V56.309h0.231
		c0.342,0,0.708-0.01,1.088-0.02c0.426-0.012,0.871-0.023,1.334-0.023c3.592,0,5.736,1.875,5.736,5.016
		C170.608,64.494,168.312,66.572,164.757,66.572z M164.784,65.674c2.986,0,4.84-1.684,4.84-4.393c0-2.578-1.787-4.117-4.779-4.117
		c-0.494,0-0.836,0.012-1.186,0.023c-0.16,0.007-0.323,0.012-0.501,0.018v8.441C163.158,65.646,164.708,65.674,164.784,65.674z"/>
	<polygon fill="#FFFFFF" points="180.38,66.536 180.38,56.303 186.103,56.303 186.103,57.197 181.319,57.197 181.319,60.896 
		185.671,60.896 185.671,61.797 181.319,61.797 181.319,65.637 186.247,65.637 186.247,66.536 	"/>
	<path fill="#FFFFFF" d="M198.618,66.665c-1.16,0-2.618-0.513-3.162-1.493l-0.025-0.047l0.571-0.656l0.052,0.076
		c0.617,0.84,1.754,1.223,2.551,1.223c1.116,0,2.316-0.568,2.316-1.813c0-1.316-1.164-1.776-2.398-2.265
		c-1.384-0.549-2.818-1.115-2.818-2.922c0-1.552,1.217-2.596,3.03-2.596c1.118,0,2.176,0.402,2.764,1.048l0.04,0.044l-0.52,0.711
		l-0.061-0.063c-0.559-0.559-1.299-0.842-2.195-0.842c-1.26,0-2.074,0.664-2.074,1.697c0,1.284,1.143,1.72,2.353,2.184
		c1.343,0.512,2.862,1.092,2.862,2.988C201.903,65.521,200.522,66.665,198.618,66.665z"/>
	<rect x="211.519" y="56.303" fill="#FFFFFF" width="0.94" height="10.233"/>
	<path fill="#FFFFFF" d="M227.202,66.665c-3.08,0-5.072-2.058-5.072-5.246c0-3.04,2.092-5.247,4.971-5.247
		c1.32,0,2.325,0.309,3.159,0.968l0.051,0.04l-0.437,0.75l-0.067-0.057c-0.62-0.526-1.526-0.803-2.618-0.803
		c-2.398,0-4.074,1.789-4.074,4.349c0,2.601,1.653,4.349,4.117,4.349c1.1,0,2.296-0.414,2.924-1.008V62.4H227.2v-0.898h3.852v3.736
		l-0.021,0.021C230.063,66.225,228.37,66.665,227.202,66.665z"/>
	<polygon fill="#FFFFFF" points="247.983,66.536 241.19,58 241.19,66.536 240.293,66.536 240.293,56.303 241.036,56.303 
		247.831,64.864 247.831,56.303 248.726,56.303 248.726,66.536 	"/>
	<path fill="#FFFFFF" d="M260.034,66.665c-1.157,0-2.617-0.513-3.16-1.493l-0.024-0.047l0.569-0.656l0.055,0.076
		c0.615,0.84,1.752,1.223,2.549,1.223c1.115,0,2.318-0.568,2.318-1.813c0-1.316-1.168-1.776-2.397-2.265
		c-1.388-0.549-2.819-1.115-2.819-2.922c0-1.552,1.217-2.596,3.027-2.596c1.119,0,2.178,0.402,2.762,1.048l0.04,0.044l-0.517,0.711
		l-0.061-0.063c-0.562-0.559-1.301-0.842-2.197-0.842c-1.258,0-2.07,0.664-2.07,1.697c0,1.284,1.143,1.72,2.35,2.184
		c1.342,0.512,2.865,1.092,2.865,2.988C263.323,65.521,261.941,66.665,260.034,66.665z"/>
</g>
<g>
	<g>
		<g>
			<g>
				<polygon fill="#FFFFFF" points="226.753,50.854 226.753,18.633 212.28,36.584 212.108,36.574 197.618,18.633 197.63,50.854 
					195.706,50.854 195.706,15.939 197.804,15.939 212.165,34.048 226.624,15.939 228.675,15.939 228.675,50.854 				"/>
			</g>
		</g>
	</g>
	<g>
		<path fill="#FFFFFF" d="M234.394,15.939H249.7c4.32,0,7.447,0.979,9.293,2.905c1.553,1.621,2.242,3.887,2.11,6.934
			c-0.235,5.533-4.656,7.431-8.321,8.047l-0.658,0.112l10.699,17.02H260.6l-10.696-16.969h-13.42l0.014,16.969l-2.104,0.014
			L234.394,15.939L234.394,15.939z M238.81,17.654c-0.899,0-1.6,0.006-1.949,0.015l-0.436,0.011v14.47l13.654,0.065
			c5.175,0,9.077-3.089,9.077-7.188c0-4.925-3.151-7.318-9.64-7.318c-0.281,0-1.175-0.004-2.369-0.015
			C244.739,17.679,241.114,17.654,238.81,17.654z"/>
	</g>
	<g>
		<g>
			<polygon fill="#FFFFFF" points="187.88,50.854 187.88,33.923 164.642,33.923 164.642,50.854 162.72,50.854 162.72,15.939 
				164.642,15.939 164.642,32.153 187.88,32.153 187.88,15.939 189.806,15.939 189.806,50.854 			"/>
		</g>
	</g>
</g>
<g>
	<path fill="#FFFFFF" d="M269.97,79.389H155.845l-0.163-0.289c-2.269-4.01-4.22-6.063-9.774-7.619l-0.416-0.116V11.256l0.393-0.128
		c4.867-1.59,6.802-3.158,9.41-7.628l0.164-0.282H269.97l0.162,0.294c2.437,4.407,4.419,6.55,9.728,7.6l0.458,0.09v60.162
		l-0.413,0.117c-5.065,1.436-7.349,3.215-9.771,7.613L269.97,79.389z M156.507,78.25H269.3c2.445-4.33,4.922-6.275,9.879-7.744
		V12.131c-5.261-1.142-7.455-3.46-9.879-7.776H156.11c-2.602,4.381-4.729,6.119-9.48,7.724v58.426
		C152.091,72.111,154.245,74.326,156.507,78.25z"/>
	<g>
		<path fill="#FFFFFF" d="M271.642,1.592c1.338,3.999,5.513,7.417,10.336,8.44v62.516c-4.904,0.966-9.089,4.394-10.363,8.466H154.19
			c-1.285-4.057-5.47-7.481-10.361-8.461V10.017c4.768-1.067,8.937-4.478,10.318-8.424L271.642,1.592 M272.879,0H152.931
			c-0.777,4.183-5.533,8.045-10.694,8.678v65.246c5.306,0.518,10.054,4.377,10.694,8.682h119.948
			c0.626-4.316,5.373-8.182,10.69-8.682V8.678C278.337,8.102,273.593,4.241,272.879,0L272.879,0z"/>
		<g>
			<path fill="#FFFFFF" d="M271.642,1.592c1.338,3.999,5.513,7.417,10.336,8.44v62.516c-4.904,0.966-9.089,4.394-10.363,8.466
				H154.19c-1.285-4.057-5.47-7.481-10.361-8.461V10.017c4.768-1.067,8.937-4.478,10.318-8.424L271.642,1.592 M272.879,0H152.931
				c-0.777,4.183-5.533,8.045-10.694,8.678v65.246c5.306,0.518,10.054,4.377,10.694,8.682h119.948
				c0.626-4.316,5.373-8.182,10.69-8.682V8.678C278.337,8.102,273.593,4.241,272.879,0L272.879,0z"/>
		</g>
	</g>
</g>
<g>
	<circle fill="#FFFFFF" cx="283.625" cy="192.25" r="10.75"/>
	<g>
		<path fill="#0C1523" d="M280.329,188.729h6.92v1.379h-2.723v7.016h-1.475v-7.016h-2.723L280.329,188.729L280.329,188.729z"/>
	</g>
</g>
<g>
	<circle fill="#FFFFFF" cx="315.625" cy="192.25" r="10.75"/>
	<g>
		<path fill="#0C1523" d="M313.372,187.979h4.854v1.379h-3.382v2.087h3.022v1.379h-3.022v2.17h3.502v1.379h-4.978L313.372,187.979
			L313.372,187.979z"/>
	</g>
</g>
<path fill="#FFFFFF" d="M171.063,126.558c-1.028,0.457-2.134,0.765-3.295,0.903c1.185-0.71,2.095-1.834,2.523-3.174
	c-1.109,0.658-2.337,1.135-3.645,1.392c-1.046-1.115-2.537-1.812-4.188-1.812c-3.169,0-5.738,2.569-5.738,5.737
	c0,0.45,0.051,0.888,0.148,1.308c-4.768-0.239-8.996-2.523-11.826-5.995c-0.494,0.848-0.776,1.833-0.776,2.885
	c0,1.99,1.013,3.747,2.553,4.775c-0.941-0.029-1.826-0.288-2.6-0.717c0,0.023,0,0.047,0,0.072c0,2.78,1.978,5.099,4.603,5.625
	c-0.481,0.131-0.988,0.202-1.512,0.202c-0.369,0-0.729-0.036-1.08-0.103c0.73,2.279,2.85,3.938,5.36,3.984
	c-1.964,1.539-4.438,2.457-7.126,2.457c-0.463,0-0.92-0.027-1.368-0.08c2.538,1.627,5.555,2.578,8.795,2.578
	c10.554,0,16.325-8.743,16.325-16.325c0-0.249-0.006-0.496-0.017-0.742C169.321,128.719,170.294,127.709,171.063,126.558"/>
<path fill="#FFFFFF" d="M211.221,123.788h-21.067c-0.723,0-1.308,0.585-1.308,1.307v21.069c0,0.721,0.585,1.307,1.308,1.307h11.343
	V138.3h-3.087v-3.574h3.087v-2.635c0-3.059,1.868-4.725,4.597-4.725c1.308,0,2.431,0.097,2.758,0.141v3.196l-1.893,0.001
	c-1.484,0-1.771,0.705-1.771,1.74v2.281h3.539l-0.461,3.574h-3.078v9.171h6.034c0.723,0,1.308-0.585,1.308-1.307v-21.069
	C212.528,124.373,211.943,123.788,211.221,123.788"/>
<g>
	<path fill="#FFFFFF" d="M242.49,122.216c-7.407,0-13.412,6.005-13.412,13.413c0,5.492,3.303,10.21,8.027,12.284
		c-0.037-0.936-0.006-2.061,0.234-3.079c0.258-1.089,1.726-7.309,1.726-7.309s-0.429-0.856-0.429-2.122
		c0-1.988,1.152-3.472,2.587-3.472c1.22,0,1.81,0.917,1.81,2.014c0,1.227-0.782,3.061-1.185,4.76
		c-0.336,1.423,0.713,2.583,2.117,2.583c2.541,0,4.253-3.264,4.253-7.131c0-2.939-1.98-5.14-5.581-5.14
		c-4.068,0-6.604,3.034-6.604,6.423c0,1.168,0.345,1.992,0.884,2.63c0.248,0.293,0.283,0.411,0.193,0.748
		c-0.064,0.247-0.212,0.841-0.273,1.077c-0.09,0.339-0.364,0.461-0.672,0.335c-1.874-0.765-2.746-2.817-2.746-5.124
		c0-3.81,3.213-8.378,9.585-8.378c5.121,0,8.491,3.706,8.491,7.683c0,5.261-2.925,9.192-7.236,9.192
		c-1.448,0-2.811-0.783-3.276-1.672c0,0-0.779,3.09-0.944,3.687c-0.284,1.035-0.841,2.068-1.35,2.874
		c1.206,0.355,2.48,0.55,3.801,0.55c7.406,0,13.412-6.005,13.412-13.412C255.902,128.221,249.896,122.216,242.49,122.216z"/>
</g>
<path fill="#FFFFFF" d="M324.75,242.375c0,1.519-1.231,2.75-2.75,2.75h-32.5c-1.519,0-2.75-1.231-2.75-2.75l0,0
	c0-1.519,1.231-2.75,2.75-2.75H322C323.519,239.625,324.75,240.856,324.75,242.375L324.75,242.375z"/>
<path fill="#FFFFFF" d="M324.75,252c0,1.519-1.231,2.75-2.75,2.75h-32.5c-1.519,0-2.75-1.231-2.75-2.75l0,0
	c0-1.519,1.231-2.75,2.75-2.75H322C323.519,249.25,324.75,250.481,324.75,252L324.75,252z"/>
<path fill="#FFFFFF" d="M324.75,261.625c0,1.519-1.231,2.75-2.75,2.75h-32.5c-1.519,0-2.75-1.231-2.75-2.75l0,0
	c0-1.519,1.231-2.75,2.75-2.75H322C323.519,258.875,324.75,260.106,324.75,261.625L324.75,261.625z"/>
<path id="magnifier-icon" fill="#FFFFFF" d="M168.965,282.089l6.09-6.089c-0.891-1.403-1.407-3.065-1.407-4.848
	c0-5.003,4.07-9.073,9.073-9.073c5.004,0,9.074,4.07,9.074,9.073c0,5.004-4.07,9.074-9.074,9.074c-1.692,0-3.278-0.467-4.636-1.277
	l-6.13,6.13L168.965,282.089z M188.412,271.152c0-3.138-2.553-5.69-5.691-5.69c-3.137,0-5.69,2.553-5.69,5.69
	c0,3.139,2.554,5.691,5.69,5.691C185.859,276.844,188.412,274.291,188.412,271.152z"/>
<path id="instagram-icon" fill="#FFFFFF" d="M167.39,177.929h7.264v11.152c0,2.717-2.201,4.919-4.918,4.919h-15.033
	c-2.717,0-4.919-2.202-4.919-4.919v-11.152h7.232c-0.74,1.04-1.177,2.311-1.177,3.685c0,3.515,2.849,6.364,6.364,6.364
	s6.364-2.85,6.364-6.364C168.567,180.239,168.13,178.969,167.39,177.929z M174.654,173.919v3.23h-7.917
	c-1.154-1.172-2.759-1.899-4.534-1.899s-3.379,0.728-4.534,1.899h-7.885v-3.23c0-1.658,0.821-3.123,2.078-4.015v5.297h1.008v-5.847
	c0.229-0.093,0.466-0.167,0.71-0.225v6.071h1.008v-6.198c0.038-0.001,0.076-0.003,0.114-0.003h0.583v6.201h1.008V169h13.442
	C172.453,169,174.654,171.202,174.654,173.919z M172.406,171.846c0-0.436-0.354-0.789-0.789-0.789h-2.658
	c-0.437,0-0.789,0.354-0.789,0.789v2.718c0,0.436,0.353,0.789,0.789,0.789h2.658c0.436,0,0.789-0.354,0.789-0.789V171.846
	L172.406,171.846z M157.3,181.613c0-1.468,0.649-2.785,1.674-3.685c0.36-0.315,0.766-0.579,1.206-0.779
	c0.617-0.28,1.302-0.438,2.022-0.438s1.405,0.158,2.022,0.438c0.44,0.2,0.847,0.464,1.206,0.779
	c1.025,0.899,1.674,2.217,1.674,3.685c0,2.703-2.199,4.903-4.902,4.903C159.5,186.517,157.3,184.316,157.3,181.613z
	 M158.596,181.613c0,2.002,1.623,3.624,3.624,3.624s3.624-1.622,3.624-3.624c0-2.001-1.623-3.623-3.624-3.623
	S158.596,179.612,158.596,181.613z"/>
<g>
	<path fill="#0C1523" d="M165.521,769.572c-0.36,0-0.734-0.009-1.115-0.016c-0.396-0.006-0.807-0.016-1.22-0.016h-0.203v-10.231
		h0.231c0.342,0,0.708-0.01,1.088-0.02c0.426-0.012,0.871-0.023,1.334-0.023c3.592,0,5.736,1.875,5.736,5.016
		C171.372,767.494,169.075,769.572,165.521,769.572z M165.548,768.674c2.986,0,4.84-1.684,4.84-4.393
		c0-2.578-1.787-4.117-4.779-4.117c-0.494,0-0.836,0.012-1.186,0.023c-0.16,0.007-0.323,0.012-0.501,0.018v8.441
		C163.922,768.646,165.472,768.674,165.548,768.674z"/>
	<polygon fill="#0C1523" points="181.144,769.536 181.144,759.303 186.866,759.303 186.866,760.197 182.083,760.197 
		182.083,763.896 186.435,763.896 186.435,764.797 182.083,764.797 182.083,768.637 187.011,768.637 187.011,769.536 	"/>
	<path fill="#0C1523" d="M199.382,769.665c-1.16,0-2.618-0.513-3.162-1.493l-0.025-0.047l0.571-0.656l0.052,0.076
		c0.617,0.84,1.754,1.223,2.551,1.223c1.116,0,2.316-0.568,2.316-1.813c0-1.316-1.164-1.776-2.398-2.265
		c-1.384-0.549-2.818-1.115-2.818-2.922c0-1.552,1.217-2.596,3.03-2.596c1.118,0,2.176,0.402,2.764,1.048l0.04,0.044l-0.52,0.711
		l-0.061-0.063c-0.559-0.559-1.299-0.842-2.195-0.842c-1.26,0-2.074,0.664-2.074,1.697c0,1.284,1.143,1.72,2.353,2.184
		c1.343,0.512,2.862,1.092,2.862,2.988C202.667,768.521,201.286,769.665,199.382,769.665z"/>
	<rect x="212.282" y="759.303" fill="#0C1523" width="0.94" height="10.233"/>
	<path fill="#0C1523" d="M227.966,769.665c-3.08,0-5.072-2.058-5.072-5.246c0-3.04,2.092-5.247,4.971-5.247
		c1.32,0,2.325,0.309,3.159,0.968l0.051,0.04l-0.437,0.75l-0.067-0.057c-0.62-0.526-1.526-0.803-2.618-0.803
		c-2.398,0-4.074,1.789-4.074,4.349c0,2.601,1.653,4.349,4.117,4.349c1.1,0,2.296-0.414,2.924-1.008v-2.36h-2.955v-0.898h3.852
		v3.736l-0.021,0.021C230.827,769.225,229.134,769.665,227.966,769.665z"/>
	<polygon fill="#0C1523" points="248.747,769.536 241.954,761 241.954,769.536 241.057,769.536 241.057,759.303 241.8,759.303 
		248.595,767.864 248.595,759.303 249.489,759.303 249.489,769.536 	"/>
	<path fill="#0C1523" d="M260.798,769.665c-1.157,0-2.617-0.513-3.16-1.493l-0.024-0.047l0.569-0.656l0.055,0.076
		c0.615,0.84,1.752,1.223,2.549,1.223c1.115,0,2.318-0.568,2.318-1.813c0-1.316-1.168-1.776-2.397-2.265
		c-1.388-0.549-2.819-1.115-2.819-2.922c0-1.552,1.217-2.596,3.027-2.596c1.119,0,2.178,0.402,2.762,1.048l0.04,0.044l-0.517,0.711
		l-0.061-0.063c-0.562-0.559-1.301-0.842-2.197-0.842c-1.258,0-2.07,0.664-2.07,1.697c0,1.284,1.143,1.72,2.35,2.184
		c1.342,0.512,2.865,1.092,2.865,2.988C264.087,768.521,262.705,769.665,260.798,769.665z"/>
</g>
<g>
	<g>
		<g>
			<g>
				<polygon fill="#0C1523" points="227.517,753.854 227.517,721.633 213.044,739.584 212.872,739.574 198.382,721.633 
					198.394,753.854 196.47,753.854 196.47,718.939 198.567,718.939 212.929,737.048 227.388,718.939 229.438,718.939 
					229.438,753.854 				"/>
			</g>
		</g>
	</g>
	<g>
		<path fill="#0C1523" d="M235.157,718.939h15.307c4.32,0,7.447,0.979,9.293,2.905c1.553,1.621,2.242,3.887,2.11,6.934
			c-0.235,5.533-4.656,7.431-8.321,8.047l-0.658,0.112l10.699,17.02h-2.224l-10.696-16.969h-13.42l0.014,16.969l-2.104,0.014
			V718.939z M239.573,720.654c-0.899,0-1.6,0.006-1.949,0.015l-0.436,0.011v14.47l13.654,0.065c5.175,0,9.077-3.089,9.077-7.188
			c0-4.925-3.151-7.318-9.64-7.318c-0.281,0-1.175-0.004-2.369-0.015C245.503,720.679,241.878,720.654,239.573,720.654z"/>
	</g>
	<g>
		<g>
			<polygon fill="#0C1523" points="188.644,753.854 188.644,736.923 165.405,736.923 165.405,753.854 163.483,753.854 
				163.483,718.939 165.405,718.939 165.405,735.153 188.644,735.153 188.644,718.939 190.569,718.939 190.569,753.854 			"/>
		</g>
	</g>
</g>
<g>
	<path fill="#0C1523" d="M270.733,782.389H156.608l-0.163-0.289c-2.269-4.01-4.22-6.063-9.774-7.619l-0.416-0.116v-60.109
		l0.393-0.128c4.867-1.59,6.802-3.158,9.41-7.628l0.164-0.282h114.511l0.162,0.294c2.437,4.407,4.419,6.55,9.728,7.6l0.458,0.09
		v60.162l-0.413,0.117c-5.065,1.436-7.349,3.215-9.771,7.613L270.733,782.389z M157.271,781.25h112.793
		c2.445-4.33,4.922-6.275,9.879-7.744v-58.375c-5.261-1.142-7.455-3.46-9.879-7.776h-113.19c-2.602,4.381-4.729,6.119-9.48,7.724
		v58.426C152.854,775.111,155.009,777.326,157.271,781.25z"/>
	<g>
		<path fill="#0C1523" d="M272.405,704.592c1.338,3.999,5.513,7.417,10.336,8.44v62.516c-4.904,0.966-9.089,4.394-10.363,8.466
			H154.954c-1.285-4.057-5.47-7.481-10.361-8.461v-62.536c4.767-1.067,8.936-4.478,10.318-8.425H272.405 M273.643,703H153.694
			c-0.777,4.183-5.533,8.045-10.694,8.678v65.246c5.306,0.518,10.054,4.377,10.694,8.682h119.948
			c0.626-4.316,5.373-8.182,10.69-8.682v-65.246C279.101,711.102,274.356,707.241,273.643,703L273.643,703z"/>
		<g>
			<path fill="#0C1523" d="M272.405,704.592c1.338,3.999,5.513,7.417,10.336,8.44v62.516c-4.904,0.966-9.089,4.394-10.363,8.466
				H154.954c-1.285-4.057-5.47-7.481-10.361-8.461v-62.536c4.767-1.067,8.936-4.478,10.318-8.425H272.405 M273.643,703H153.694
				c-0.777,4.183-5.533,8.045-10.694,8.678v65.246c5.306,0.518,10.054,4.377,10.694,8.682h119.948
				c0.626-4.316,5.373-8.182,10.69-8.682v-65.246C279.101,711.102,274.356,707.241,273.643,703L273.643,703z"/>
		</g>
	</g>
</g>
</svg>
