<?xml version="1.0" encoding="utf-8"?>
<!-- Generator: Adobe Illustrator 17.1.0, SVG Export Plug-In . SVG Version: 6.00 Build 0)  -->
<!DOCTYPE svg PUBLIC "-//W3C//DTD SVG 1.1//EN" "http://www.w3.org/Graphics/SVG/1.1/DTD/svg11.dtd">
<svg version="1.1" id="Layer_1" xmlns="http://www.w3.org/2000/svg" xmlns:xlink="http://www.w3.org/1999/xlink" x="0px" y="0px"
	 width="612px" height="792px" viewBox="0 0 612 792" enable-background="new 0 0 612 792" xml:space="preserve">
<rect fill="#0C1523" width="141" height="792"/>
<g>
	<path fill="#FFFFFF" d="M22.5,66.6c-0.4,0-0.7,0-1.1,0s-0.8,0-1.2,0H20V56.3h0.2c0.3,0,0.7,0,1.1,0s0.9,0,1.3,0
		c3.6,0,5.7,1.9,5.7,5C28.4,64.5,26.1,66.6,22.5,66.6z M22.5,65.7c3,0,4.8-1.7,4.8-4.4c0-2.6-1.8-4.1-4.8-4.1c-0.5,0-0.8,0-1.2,0
		c-0.2,0-0.3,0-0.5,0v8.4C20.9,65.6,22.5,65.7,22.5,65.7z"/>
	<polygon fill="#FFFFFF" points="38.1,66.5 38.1,56.3 43.9,56.3 43.9,57.2 39.1,57.2 39.1,60.9 43.4,60.9 43.4,61.8 39.1,61.8 
		39.1,65.6 44,65.6 44,66.5 	"/>
	<path fill="#FFFFFF" d="M56.4,66.7c-1.2,0-2.6-0.5-3.2-1.5l0,0l0.6-0.7l0.1,0.1c0.6,0.8,1.8,1.2,2.6,1.2c1.1,0,2.3-0.6,2.3-1.8
		c0-1.3-1.2-1.8-2.4-2.3c-1.4-0.5-2.8-1.1-2.8-2.9c0-1.6,1.2-2.6,3-2.6c1.1,0,2.2,0.4,2.8,1l0,0L58.8,58l-0.1-0.1
		c-0.6-0.6-1.3-0.8-2.2-0.8c-1.3,0-2.1,0.7-2.1,1.7c0,1.3,1.1,1.7,2.4,2.2c1.3,0.5,2.9,1.1,2.9,3C59.7,65.5,58.3,66.7,56.4,66.7z"/>
	<rect x="69.3" y="56.3" fill="#FFFFFF" width="0.9" height="10.2"/>
	<path fill="#FFFFFF" d="M85,66.7c-3.1,0-5.1-2.1-5.1-5.2c0-3,2.1-5.2,5-5.2c1.3,0,2.3,0.3,3.2,1h0.1l-0.4,0.8L87.7,58
		C87,57.3,86,57.1,85,57.1c-2.4,0-4.1,1.8-4.1,4.3c0,2.6,1.7,4.3,4.1,4.3c1.1,0,2.3-0.4,2.9-1v-2.4h-3v-0.9h3.9v3.7l0,0
		C87.8,66.2,86.1,66.7,85,66.7z"/>
	<polygon fill="#FFFFFF" points="105.7,66.5 99,58 99,66.5 98.1,66.5 98.1,56.3 98.8,56.3 105.6,64.9 105.6,56.3 106.5,56.3 
		106.5,66.5 	"/>
	<path fill="#FFFFFF" d="M117.8,66.7c-1.2,0-2.6-0.5-3.2-1.5l0,0l0.6-0.7l0.1,0.1c0.6,0.8,1.8,1.2,2.5,1.2c1.1,0,2.3-0.6,2.3-1.8
		c0-1.3-1.2-1.8-2.4-2.3c-1.4-0.5-2.8-1.1-2.8-2.9c0-1.6,1.2-2.6,3-2.6c1.1,0,2.2,0.4,2.8,1l0,0l-0.5,0.7l-0.1-0.1
		c-0.6-0.6-1.3-0.8-2.2-0.8c-1.3,0-2.1,0.7-2.1,1.7c0,1.3,1.1,1.7,2.3,2.2c1.3,0.5,2.9,1.1,2.9,3C121.1,65.5,119.7,66.7,117.8,66.7z
		"/>
</g>
<g>
	<g>
		<g>
			<g>
				<polygon fill="#FFFFFF" points="84.5,50.9 84.5,18.6 70,36.6 69.9,36.6 55.4,18.6 55.4,50.9 53.5,50.9 53.5,15.9 55.6,15.9 
					69.9,34 84.4,15.9 86.4,15.9 86.4,50.9 				"/>
			</g>
		</g>
	</g>
	<g>
		<path fill="#FFFFFF" d="M92.2,15.9h15.3c4.3,0,7.4,1,9.3,2.9c1.6,1.6,2.2,3.9,2.1,6.9c-0.2,5.5-4.7,7.4-8.3,8l-0.7,0.1l10.7,17
			h-2.2l-10.7-17H94.2v17h-2.1L92.2,15.9L92.2,15.9z M96.6,17.7c-0.9,0-1.6,0-1.9,0h-0.4v14.5l13.7,0.1c5.2,0,9.1-3.1,9.1-7.2
			c0-4.9-3.2-7.3-9.6-7.3c-0.3,0-1.2,0-2.4,0C102.5,17.7,98.9,17.7,96.6,17.7z"/>
	</g>
	<g>
		<g>
			<polygon fill="#FFFFFF" points="45.6,50.9 45.6,33.9 22.4,33.9 22.4,50.9 20.5,50.9 20.5,15.9 22.4,15.9 22.4,32.2 45.6,32.2 
				45.6,15.9 47.6,15.9 47.6,50.9 			"/>
		</g>
	</g>
</g>
<g>
	<path fill="#FFFFFF" d="M127.7,79.4H13.6l-0.2-0.3c-2.3-4-4.2-6.1-9.8-7.6l-0.4-0.1V11.3l0.4-0.1C8.5,9.6,10.4,8,13,3.6l0.2-0.3
		h114.5l0.2,0.3c2.4,4.4,4.4,6.6,9.7,7.6l0.5,0.1v60.2l-0.4,0.1c-5.1,1.4-7.3,3.2-9.8,7.6L127.7,79.4z M14.3,78.2h112.8
		c2.4-4.3,4.9-6.3,9.9-7.7V12.1c-5.3-1.1-7.5-3.5-9.9-7.8H13.9c-2.6,4.4-4.7,6.1-9.5,7.7v58.4C9.9,72.1,12,74.3,14.3,78.2z"/>
	<g>
		<path fill="#FFFFFF" d="M129.4,1.6c1.3,4,5.5,7.4,10.3,8.4v62.5c-4.9,1-9.1,4.4-10.4,8.5H12c-1.3-4.1-5.5-7.5-10.4-8.5V10
			c4.8-1.1,8.9-4.5,10.3-8.4L129.4,1.6 M130.6,0H10.7C9.9,4.2,5.2,8,0,8.7v65.2c5.3,0.5,10.1,4.4,10.7,8.7h119.9
			c0.6-4.3,5.4-8.2,10.7-8.7V8.7C136.1,8.1,131.4,4.2,130.6,0L130.6,0z"/>
		<g>
			<path fill="#FFFFFF" d="M129.4,1.6c1.3,4,5.5,7.4,10.3,8.4v62.5c-4.9,1-9.1,4.4-10.4,8.5H12c-1.3-4.1-5.5-7.5-10.4-8.5V10
				c4.8-1.1,8.9-4.5,10.3-8.4L129.4,1.6 M130.6,0H10.7C9.9,4.2,5.2,8,0,8.7v65.2c5.3,0.5,10.1,4.4,10.7,8.7h119.9
				c0.6-4.3,5.4-8.2,10.7-8.7V8.7C136.1,8.1,131.4,4.2,130.6,0L130.6,0z"/>
		</g>
	</g>
</g>
<g>
	<path fill="#FFFFFF" d="M164.8,66.6c-0.4,0-0.7,0-1.1,0c-0.4,0-0.8,0-1.2,0h-0.2V56.3h0.2c0.3,0,0.7,0,1.1,0c0.4,0,0.9,0,1.3,0
		c3.6,0,5.7,1.9,5.7,5C170.6,64.5,168.3,66.6,164.8,66.6z M164.8,65.7c3,0,4.8-1.7,4.8-4.4c0-2.6-1.8-4.1-4.8-4.1
		c-0.5,0-0.8,0-1.2,0c-0.2,0-0.3,0-0.5,0v8.4C163.2,65.6,164.7,65.7,164.8,65.7z"/>
	<polygon fill="#FFFFFF" points="180.4,66.5 180.4,56.3 186.1,56.3 186.1,57.2 181.3,57.2 181.3,60.9 185.7,60.9 185.7,61.8 
		181.3,61.8 181.3,65.6 186.2,65.6 186.2,66.5 	"/>
	<path fill="#FFFFFF" d="M198.6,66.7c-1.2,0-2.6-0.5-3.2-1.5l0,0l0.6-0.7l0.1,0.1c0.6,0.8,1.8,1.2,2.6,1.2c1.1,0,2.3-0.6,2.3-1.8
		c0-1.3-1.2-1.8-2.4-2.3c-1.4-0.5-2.8-1.1-2.8-2.9c0-1.6,1.2-2.6,3-2.6c1.1,0,2.2,0.4,2.8,1l0,0L201,58l-0.1-0.1
		c-0.6-0.6-1.3-0.8-2.2-0.8c-1.3,0-2.1,0.7-2.1,1.7c0,1.3,1.1,1.7,2.4,2.2c1.3,0.5,2.9,1.1,2.9,3C201.9,65.5,200.5,66.7,198.6,66.7z
		"/>
	<rect x="211.5" y="56.3" fill="#FFFFFF" width="0.9" height="10.2"/>
	<path fill="#FFFFFF" d="M227.2,66.7c-3.1,0-5.1-2.1-5.1-5.2c0-3,2.1-5.2,5-5.2c1.3,0,2.3,0.3,3.2,1h0.1l-0.4,0.8l-0.1-0.1
		c-0.6-0.5-1.5-0.8-2.6-0.8c-2.4,0-4.1,1.8-4.1,4.3c0,2.6,1.7,4.3,4.1,4.3c1.1,0,2.3-0.4,2.9-1v-2.4h-3v-0.9h3.9v3.7l0,0
		C230.1,66.2,228.4,66.7,227.2,66.7z"/>
	<polygon fill="#FFFFFF" points="248,66.5 241.2,58 241.2,66.5 240.3,66.5 240.3,56.3 241,56.3 247.8,64.9 247.8,56.3 248.7,56.3 
		248.7,66.5 	"/>
	<path fill="#FFFFFF" d="M260,66.7c-1.2,0-2.6-0.5-3.2-1.5l0,0l0.6-0.7l0.1,0.1c0.6,0.8,1.8,1.2,2.5,1.2c1.1,0,2.3-0.6,2.3-1.8
		c0-1.3-1.2-1.8-2.4-2.3c-1.4-0.5-2.8-1.1-2.8-2.9c0-1.6,1.2-2.6,3-2.6c1.1,0,2.2,0.4,2.8,1l0,0l-0.5,0.7l-0.1-0.1
		c-0.6-0.6-1.3-0.8-2.2-0.8c-1.3,0-2.1,0.7-2.1,1.7c0,1.3,1.1,1.7,2.4,2.2s2.9,1.1,2.9,3C263.3,65.5,261.9,66.7,260,66.7z"/>
</g>
<g>
	<g>
		<g>
			<g>
				<polygon fill="#FFFFFF" points="226.8,50.9 226.8,18.6 212.3,36.6 212.1,36.6 197.6,18.6 197.6,50.9 195.7,50.9 195.7,15.9 
					197.8,15.9 212.2,34 226.6,15.9 228.7,15.9 228.7,50.9 				"/>
			</g>
		</g>
	</g>
	<g>
		<path fill="#FFFFFF" d="M234.4,15.9h15.3c4.3,0,7.4,1,9.3,2.9c1.6,1.6,2.2,3.9,2.1,6.9c-0.2,5.5-4.7,7.4-8.3,8l-0.7,0.1l10.7,17
			h-2.2l-10.7-17h-13.4v17h-2.1L234.4,15.9L234.4,15.9z M238.8,17.7c-0.9,0-1.6,0-1.9,0h-0.4v14.5l13.7,0.1c5.2,0,9.1-3.1,9.1-7.2
			c0-4.9-3.2-7.3-9.6-7.3c-0.3,0-1.2,0-2.4,0C244.7,17.7,241.1,17.7,238.8,17.7z"/>
	</g>
	<g>
		<g>
			<polygon fill="#FFFFFF" points="187.9,50.9 187.9,33.9 164.6,33.9 164.6,50.9 162.7,50.9 162.7,15.9 164.6,15.9 164.6,32.2 
				187.9,32.2 187.9,15.9 189.8,15.9 189.8,50.9 			"/>
		</g>
	</g>
</g>
<g>
	<path fill="#FFFFFF" d="M270,79.4H155.8l-0.2-0.3c-2.3-4-4.2-6.1-9.8-7.6l-0.4-0.1V11.3l0.4-0.1c4.9-1.6,6.8-3.2,9.4-7.6l0.2-0.3
		H270l0.2,0.3c2.4,4.4,4.4,6.6,9.7,7.6l0.5,0.1v60.2l-0.4,0.1c-5.1,1.4-7.3,3.2-9.8,7.6L270,79.4z M156.5,78.2h112.8
		c2.4-4.3,4.9-6.3,9.9-7.7V12.1c-5.3-1.1-7.5-3.5-9.9-7.8H156.1c-2.6,4.4-4.7,6.1-9.5,7.7v58.4C152.1,72.1,154.2,74.3,156.5,78.2z"
		/>
	<g>
		<path fill="#FFFFFF" d="M271.6,1.6c1.3,4,5.5,7.4,10.3,8.4v62.5c-4.9,1-9.1,4.4-10.4,8.5H154.2c-1.3-4.1-5.5-7.5-10.4-8.5V10
			c4.8-1.1,8.9-4.5,10.3-8.4L271.6,1.6 M272.9,0h-120c-0.8,4.2-5.5,8-10.7,8.7v65.2c5.3,0.5,10.1,4.4,10.7,8.7h119.9
			c0.6-4.3,5.4-8.2,10.7-8.7V8.7C278.3,8.1,273.6,4.2,272.9,0L272.9,0z"/>
		<g>
			<path fill="#FFFFFF" d="M271.6,1.6c1.3,4,5.5,7.4,10.3,8.4v62.5c-4.9,1-9.1,4.4-10.4,8.5H154.2c-1.3-4.1-5.5-7.5-10.4-8.5V10
				c4.8-1.1,8.9-4.5,10.3-8.4L271.6,1.6 M272.9,0h-120c-0.8,4.2-5.5,8-10.7,8.7v65.2c5.3,0.5,10.1,4.4,10.7,8.7h119.9
				c0.6-4.3,5.4-8.2,10.7-8.7V8.7C278.3,8.1,273.6,4.2,272.9,0L272.9,0z"/>
		</g>
	</g>
</g>
<g>
	<circle fill="#FFFFFF" cx="280.9" cy="189.5" r="8"/>
	<g>
		<path fill="#0C1523" d="M278.4,186.9h5.1v1h-2v5.2h-1.1v-5.2h-2V186.9L278.4,186.9z"/>
	</g>
</g>
<g>
	<circle fill="#FFFFFF" cx="312.9" cy="189.5" r="8"/>
	<g>
		<path fill="#0C1523" d="M311.2,186.3h3.6v1h-2.5v1.6h2.2v1h-2.2v1.6h2.6v1h-3.7V186.3L311.2,186.3z"/>
	</g>
</g>
<path fill="#FFFFFF" d="M171.1,126.6c-1,0.5-2.1,0.8-3.3,0.9c1.2-0.7,2.1-1.8,2.5-3.2c-1.1,0.7-2.3,1.1-3.6,1.4
	c-1-1.1-2.5-1.8-4.2-1.8c-3.2,0-5.7,2.6-5.7,5.7c0,0.4,0.1,0.9,0.1,1.3c-4.8-0.2-9-2.5-11.8-6c-0.5,0.8-0.8,1.8-0.8,2.9
	c0,2,1,3.7,2.6,4.8c-0.9,0-1.8-0.3-2.6-0.7c0,0,0,0,0,0.1c0,2.8,2,5.1,4.6,5.6c-0.5,0.1-1,0.2-1.5,0.2c-0.4,0-0.7,0-1.1-0.1
	c0.7,2.3,2.9,3.9,5.4,4c-2,1.5-4.4,2.5-7.1,2.5c-0.5,0-0.9,0-1.4-0.1c2.5,1.6,5.6,2.6,8.8,2.6c10.6,0,16.3-8.7,16.3-16.3
	c0-0.2,0-0.5,0-0.7C169.3,128.7,170.3,127.7,171.1,126.6"/>
<path fill="#FFFFFF" d="M211.2,123.8h-21.1c-0.7,0-1.3,0.6-1.3,1.3v21.1c0,0.7,0.6,1.3,1.3,1.3h11.3v-9.2h-3.1v-3.6h3.1v-2.6
	c0-3.1,1.9-4.7,4.6-4.7c1.3,0,2.4,0.1,2.8,0.1v3.2h-1.9c-1.5,0-1.8,0.7-1.8,1.7v2.3h3.5l-0.5,3.6H205v9.2h6c0.7,0,1.3-0.6,1.3-1.3
	v-21.1C212.5,124.4,211.9,123.8,211.2,123.8"/>
<g>
	<path fill="#FFFFFF" d="M242.5,122.2c-7.4,0-13.4,6-13.4,13.4c0,5.5,3.3,10.2,8,12.3c0-0.9,0-2.1,0.2-3.1c0.3-1.1,1.7-7.3,1.7-7.3
		s-0.4-0.9-0.4-2.1c0-2,1.2-3.5,2.6-3.5c1.2,0,1.8,0.9,1.8,2c0,1.2-0.8,3.1-1.2,4.8c-0.3,1.4,0.7,2.6,2.1,2.6c2.5,0,4.3-3.3,4.3-7.1
		c0-2.9-2-5.1-5.6-5.1c-4.1,0-6.6,3-6.6,6.4c0,1.2,0.3,2,0.9,2.6c0.2,0.3,0.3,0.4,0.2,0.7c-0.1,0.2-0.2,0.8-0.3,1.1
		s-0.4,0.5-0.7,0.3c-1.9-0.8-2.7-2.8-2.7-5.1c0-3.8,3.2-8.4,9.6-8.4c5.1,0,8.5,3.7,8.5,7.7c0,5.3-2.9,9.2-7.2,9.2
		c-1.4,0-2.8-0.8-3.3-1.7c0,0-0.8,3.1-0.9,3.7c-0.3,1-0.8,2.1-1.4,2.9c1.2,0.4,2.5,0.6,3.8,0.6c7.4,0,13.4-6,13.4-13.4
		C255.9,128.2,249.9,122.2,242.5,122.2z"/>
</g>
<path id="magnifier-icon" fill="#FFFFFF" d="M169,282.1l6.1-6.1c-0.9-1.4-1.4-3.1-1.4-4.8c0-5,4.1-9.1,9.1-9.1s9.1,4.1,9.1,9.1
	s-4.1,9.1-9.1,9.1c-1.7,0-3.3-0.5-4.6-1.3l-6.1,6.1L169,282.1z M188.4,271.2c0-3.1-2.6-5.7-5.7-5.7c-3.1,0-5.7,2.6-5.7,5.7
	s2.6,5.7,5.7,5.7C185.9,276.8,188.4,274.3,188.4,271.2z"/>
<path id="instagram-icon" fill="#FFFFFF" d="M167.4,177.9h7.3v11.2c0,2.7-2.2,4.9-4.9,4.9h-15c-2.7,0-4.9-2.2-4.9-4.9v-11.2h7.2
	c-0.7,1-1.2,2.3-1.2,3.7c0,3.5,2.8,6.4,6.4,6.4s6.4-2.9,6.4-6.4C168.6,180.2,168.1,179,167.4,177.9z M174.7,173.9v3.2h-7.9
	c-1.2-1.2-2.8-1.9-4.5-1.9s-3.4,0.7-4.5,1.9h-7.9v-3.2c0-1.7,0.8-3.1,2.1-4v5.3h1v-5.8c0.2-0.1,0.5-0.2,0.7-0.2v6.1h1V169h0.1h0.6
	v6.2h1V169h13.4C172.5,169,174.7,171.2,174.7,173.9z M172.4,171.8c0-0.4-0.4-0.8-0.8-0.8H169c-0.4,0-0.8,0.4-0.8,0.8v2.7
	c0,0.4,0.4,0.8,0.8,0.8h2.7c0.4,0,0.8-0.4,0.8-0.8v-2.7H172.4z M157.3,181.6c0-1.5,0.6-2.8,1.7-3.7c0.4-0.3,0.8-0.6,1.2-0.8
	c0.6-0.3,1.3-0.4,2-0.4s1.4,0.2,2,0.4c0.4,0.2,0.8,0.5,1.2,0.8c1,0.9,1.7,2.2,1.7,3.7c0,2.7-2.2,4.9-4.9,4.9
	S157.3,184.3,157.3,181.6z M158.6,181.6c0,2,1.6,3.6,3.6,3.6s3.6-1.6,3.6-3.6s-1.6-3.6-3.6-3.6S158.6,179.6,158.6,181.6z"/>
<g>
	<path fill="#0C1523" d="M165.5,769.6c-0.4,0-0.7,0-1.1,0c-0.4,0-0.8,0-1.2,0H163v-10.2h0.2c0.3,0,0.7,0,1.1,0c0.4,0,0.9,0,1.3,0
		c3.6,0,5.7,1.9,5.7,5C171.4,767.5,169.1,769.6,165.5,769.6z M165.5,768.7c3,0,4.8-1.7,4.8-4.4c0-2.6-1.8-4.1-4.8-4.1
		c-0.5,0-0.8,0-1.2,0c-0.2,0-0.3,0-0.5,0v8.4C163.9,768.6,165.5,768.7,165.5,768.7z"/>
	<polygon fill="#0C1523" points="181.1,769.5 181.1,759.3 186.9,759.3 186.9,760.2 182.1,760.2 182.1,763.9 186.4,763.9 
		186.4,764.8 182.1,764.8 182.1,768.6 187,768.6 187,769.5 	"/>
	<path fill="#0C1523" d="M199.4,769.7c-1.2,0-2.6-0.5-3.2-1.5l0,0l0.6-0.7l0.1,0.1c0.6,0.8,1.8,1.2,2.6,1.2c1.1,0,2.3-0.6,2.3-1.8
		c0-1.3-1.2-1.8-2.4-2.3c-1.4-0.6-2.8-1.1-2.8-2.9c0-1.6,1.2-2.6,3-2.6c1.1,0,2.2,0.4,2.8,1l0,0l-0.5,0.7l-0.1-0.1
		c-0.6-0.6-1.3-0.8-2.2-0.8c-1.3,0-2.1,0.7-2.1,1.7c0,1.3,1.1,1.7,2.4,2.2c1.3,0.5,2.9,1.1,2.9,3
		C202.7,768.5,201.3,769.7,199.4,769.7z"/>
	<rect x="212.3" y="759.3" fill="#0C1523" width="0.9" height="10.2"/>
	<path fill="#0C1523" d="M228,769.7c-3.1,0-5.1-2.1-5.1-5.2c0-3,2.1-5.2,5-5.2c1.3,0,2.3,0.3,3.2,1h0.1l-0.4,0.8l-0.1-0.1
		c-0.6-0.5-1.5-0.8-2.6-0.8c-2.4,0-4.1,1.8-4.1,4.3c0,2.6,1.7,4.3,4.1,4.3c1.1,0,2.3-0.4,2.9-1v-2.4h-3v-0.9h3.9v3.7l0,0
		C230.8,769.2,229.1,769.7,228,769.7z"/>
	<polygon fill="#0C1523" points="248.7,769.5 242,761 242,769.5 241.1,769.5 241.1,759.3 241.8,759.3 248.6,767.9 248.6,759.3 
		249.5,759.3 249.5,769.5 	"/>
	<path fill="#0C1523" d="M260.8,769.7c-1.2,0-2.6-0.5-3.2-1.5l0,0l0.6-0.7l0.1,0.1c0.6,0.8,1.8,1.2,2.5,1.2c1.1,0,2.3-0.6,2.3-1.8
		c0-1.3-1.2-1.8-2.4-2.3c-1.4-0.6-2.8-1.1-2.8-2.9c0-1.6,1.2-2.6,3-2.6c1.1,0,2.2,0.4,2.8,1l0,0l-0.5,0.7l-0.1-0.1
		c-0.6-0.6-1.3-0.8-2.2-0.8c-1.3,0-2.1,0.7-2.1,1.7c0,1.3,1.1,1.7,2.4,2.2s2.9,1.1,2.9,3C264.1,768.5,262.7,769.7,260.8,769.7z"/>
</g>
<g>
	<g>
		<g>
			<g>
				<polygon fill="#0C1523" points="227.5,753.9 227.5,721.6 213,739.6 212.9,739.6 198.4,721.6 198.4,753.9 196.5,753.9 
					196.5,718.9 198.6,718.9 212.9,737 227.4,718.9 229.4,718.9 229.4,753.9 				"/>
			</g>
		</g>
	</g>
	<g>
		<path fill="#0C1523" d="M235.2,718.9h15.3c4.3,0,7.4,1,9.3,2.9c1.6,1.6,2.2,3.9,2.1,6.9c-0.2,5.5-4.7,7.4-8.3,8l-0.7,0.1l10.7,17
			h-2.2l-10.7-17h-13.4v17h-2.1V718.9L235.2,718.9z M239.6,720.7c-0.9,0-1.6,0-1.9,0h-0.4v14.5l13.7,0.1c5.2,0,9.1-3.1,9.1-7.2
			c0-4.9-3.2-7.3-9.6-7.3c-0.3,0-1.2,0-2.4,0C245.5,720.7,241.9,720.7,239.6,720.7z"/>
	</g>
	<g>
		<g>
			<polygon fill="#0C1523" points="188.6,753.9 188.6,736.9 165.4,736.9 165.4,753.9 163.5,753.9 163.5,718.9 165.4,718.9 
				165.4,735.2 188.6,735.2 188.6,718.9 190.6,718.9 190.6,753.9 			"/>
		</g>
	</g>
</g>
<g>
	<path fill="#0C1523" d="M270.7,782.4H156.6l-0.2-0.3c-2.3-4-4.2-6.1-9.8-7.6l-0.4-0.1v-60.1l0.4-0.1c4.9-1.6,6.8-3.2,9.4-7.6
		l0.2-0.3h114.5l0.2,0.3c2.4,4.4,4.4,6.5,9.7,7.6l0.5,0.1v60.2l-0.4,0.1c-5.1,1.4-7.3,3.2-9.8,7.6L270.7,782.4z M157.3,781.2h112.8
		c2.4-4.3,4.9-6.3,9.9-7.7v-58.4c-5.3-1.1-7.5-3.5-9.9-7.8H156.9c-2.6,4.4-4.7,6.1-9.5,7.7v58.4C152.9,775.1,155,777.3,157.3,781.2z
		"/>
	<g>
		<path fill="#0C1523" d="M272.4,704.6c1.3,4,5.5,7.4,10.3,8.4v62.5c-4.9,1-9.1,4.4-10.4,8.5H155c-1.3-4.1-5.5-7.5-10.4-8.5V713
			c4.8-1.1,8.9-4.5,10.3-8.4H272.4 M273.6,703H153.7c-0.8,4.2-5.5,8-10.7,8.7v65.2c5.3,0.5,10.1,4.4,10.7,8.7h119.9
			c0.6-4.3,5.4-8.2,10.7-8.7v-65.2C279.1,711.1,274.4,707.2,273.6,703L273.6,703z"/>
		<g>
			<path fill="#0C1523" d="M272.4,704.6c1.3,4,5.5,7.4,10.3,8.4v62.5c-4.9,1-9.1,4.4-10.4,8.5H155c-1.3-4.1-5.5-7.5-10.4-8.5V713
				c4.8-1.1,8.9-4.5,10.3-8.4H272.4 M273.6,703H153.7c-0.8,4.2-5.5,8-10.7,8.7v65.2c5.3,0.5,10.1,4.4,10.7,8.7h119.9
				c0.6-4.3,5.4-8.2,10.7-8.7v-65.2C279.1,711.1,274.4,707.2,273.6,703L273.6,703z"/>
		</g>
	</g>
</g>
<path fill="#0C1523" d="M443,602.7c-1,0.5-2.1,0.8-3.3,0.9c1.2-0.7,2.1-1.8,2.5-3.2c-1.1,0.7-2.3,1.1-3.6,1.4
	c-1-1.1-2.5-1.8-4.2-1.8c-3.2,0-5.7,2.6-5.7,5.7c0,0.5,0.1,0.9,0.1,1.3c-4.8-0.2-9-2.5-11.8-6c-0.5,0.8-0.8,1.8-0.8,2.9
	c0,2,1,3.7,2.6,4.8c-0.9,0-1.8-0.3-2.6-0.7c0,0,0,0,0,0.1c0,2.8,2,5.1,4.6,5.6c-0.5,0.1-1,0.2-1.5,0.2c-0.4,0-0.7,0-1.1-0.1
	c0.7,2.3,2.9,3.9,5.4,4c-2,1.5-4.4,2.5-7.1,2.5c-0.5,0-0.9,0-1.4-0.1c2.5,1.6,5.6,2.6,8.8,2.6c10.6,0,16.3-8.7,16.3-16.3
	c0-0.2,0-0.5,0-0.7C441.2,604.9,442.2,603.8,443,602.7"/>
<path fill="#0C1523" d="M482.4,600h-21.1c-0.7,0-1.3,0.6-1.3,1.3v21.1c0,0.7,0.6,1.3,1.3,1.3h11.3v-9.2h-3.1v-3.6h3.1v-2.6
	c0-3.1,1.9-4.7,4.6-4.7c1.3,0,2.4,0.1,2.8,0.1v3.2h-1.9c-1.5,0-1.8,0.7-1.8,1.7v2.3h3.5l-0.5,3.6h-3.1v9.2h6c0.7,0,1.3-0.6,1.3-1.3
	v-21.1C483.7,600.6,483.1,600,482.4,600"/>
<g>
	<path fill="#0C1523" d="M513.4,600c-7.4,0-13.4,6-13.4,13.4c0,5.5,3.3,10.2,8,12.3c0-0.9,0-2.1,0.2-3.1c0.3-1.1,1.7-7.3,1.7-7.3
		s-0.4-0.9-0.4-2.1c0-2,1.2-3.5,2.6-3.5c1.2,0,1.8,0.9,1.8,2c0,1.2-0.8,3.1-1.2,4.8c-0.3,1.4,0.7,2.6,2.1,2.6c2.5,0,4.3-3.3,4.3-7.1
		c0-2.9-2-5.1-5.6-5.1c-4.1,0-6.6,3-6.6,6.4c0,1.2,0.3,2,0.9,2.6c0.2,0.3,0.3,0.4,0.2,0.7c-0.1,0.2-0.2,0.8-0.3,1.1
		c-0.1,0.3-0.4,0.5-0.7,0.3c-1.9-0.8-2.7-2.8-2.7-5.1c0-3.8,3.2-8.4,9.6-8.4c5.1,0,8.5,3.7,8.5,7.7c0,5.3-2.9,9.2-7.2,9.2
		c-1.4,0-2.8-0.8-3.3-1.7c0,0-0.8,3.1-0.9,3.7c-0.3,1-0.8,2.1-1.4,2.9c1.2,0.4,2.5,0.6,3.8,0.6c7.4,0,13.4-6,13.4-13.4
		C526.8,606,520.8,600,513.4,600z"/>
</g>
<path id="instagram-icon_1_" fill="#0C1523" d="M432.6,648.9h7.3v11.2c0,2.7-2.2,4.9-4.9,4.9h-15c-2.7,0-4.9-2.2-4.9-4.9v-11.2h7.2
	c-0.7,1-1.2,2.3-1.2,3.7c0,3.5,2.8,6.4,6.4,6.4c3.5,0,6.4-2.8,6.4-6.4C433.8,651.2,433.3,650,432.6,648.9z M439.9,644.9v3.2H432
	c-1.2-1.2-2.8-1.9-4.5-1.9c-1.8,0-3.4,0.7-4.5,1.9h-8v-3.2c0-1.7,0.8-3.1,2.1-4v5.3h1v-5.8c0.2-0.1,0.5-0.2,0.7-0.2v6.1h1V640h0.1
	h0.6v6.2h1V640H435C437.7,640,439.9,642.2,439.9,644.9z M437.6,642.8c0-0.4-0.4-0.8-0.8-0.8h-2.7c-0.4,0-0.8,0.4-0.8,0.8v2.7
	c0,0.4,0.4,0.8,0.8,0.8h2.7c0.4,0,0.8-0.4,0.8-0.8V642.8L437.6,642.8z M422.5,652.6c0-1.5,0.6-2.8,1.7-3.7c0.4-0.3,0.8-0.6,1.2-0.8
	c0.6-0.3,1.3-0.4,2-0.4s1.4,0.2,2,0.4c0.4,0.2,0.8,0.5,1.2,0.8c1,0.9,1.7,2.2,1.7,3.7c0,2.7-2.2,4.9-4.9,4.9
	C424.7,657.5,422.5,655.3,422.5,652.6z M423.8,652.6c0,2,1.6,3.6,3.6,3.6s3.6-1.6,3.6-3.6s-1.6-3.6-3.6-3.6S423.8,650.6,423.8,652.6
	z"/>
<rect x="289" y="241.3" fill="#FFFFFF" width="31.4" height="2.7"/>
<rect x="289" y="250.7" fill="#FFFFFF" width="31.4" height="2.7"/>
<rect x="289" y="260.3" fill="#FFFFFF" width="31.4" height="2.7"/>
<rect x="289" y="372.2" fill="#0C1523" width="31.4" height="2.7"/>
<rect x="289" y="381.6" fill="#0C1523" width="31.4" height="2.7"/>
<rect x="289" y="391.2" fill="#0C1523" width="31.4" height="2.7"/>
</svg>
